# xmcd
#
# Track frame offsets:
# 150
# 23287
# 38056
# 98744
# 128455
# 242712
# 255012
# 278865
#
# Disc length: 3867 seconds
#
#
# Revision: 0
# Processed by: cddbd v1.5.2PL0 Copyright (c) Steve Scherf et al.
# Submitted via: FreeRIP 2.942 
#
DISCID=500f1908
DTITLE=Leusemia - Al Final de la Calle los Sótanos de la Angustia-CD 2
DYEAR=2001
DGENRE=Punk
TTITLE0=Memorias
TTITLE1=Distancias
TTITLE2=El TRance de Novoa
TTITLE3=La Karakola Subterranea
TTITLE4=Al Final de la Calle
TTITLE5=La Leyenda Inmortal de Rey Rojo
TTITLE6=El Oso
TTITLE7=Universo I, II, III.
EXTD=
EXTT0=
EXTT1=
EXTT2=
EXTT3=
EXTT4=
EXTT5=
EXTT6=
EXTT7=
PLAYORDER=
